<?xml version="1.0" encoding="UTF-8"?>
<svg height="128px" viewBox="0 0 128 128" width="128px" xmlns="http://www.w3.org/2000/svg">
    <path d="m 58.023438 5 c -2.136719 0 -3.871094 1.734375 -3.871094 3.871094 v 11.3125 c -5.042969 1.101562 -9.863282 3.066406 -14.242188 5.800781 l -7.929687 -7.929687 c -1.511719 -1.511719 -3.964844 -1.511719 -5.476563 0 l -8.449218 8.449218 c -1.511719 1.511719 -1.511719 3.964844 0 5.476563 l 7.929687 7.929687 c -2.734375 4.378906 -4.699219 9.199219 -5.800781 14.242188 h -11.3125 c -2.136719 0 -3.871094 1.734375 -3.871094 3.871094 v 11.953124 c 0 2.136719 1.734375 3.871094 3.871094 3.871094 h 11.3125 c 1.101562 5.042969 3.066406 9.863282 5.800781 14.242188 l -7.929687 7.929687 c -1.511719 1.511719 -1.511719 3.964844 0 5.476563 l 8.449218 8.449218 c 1.511719 1.511719 3.964844 1.511719 5.476563 0 l 7.929687 -7.933593 c 4.378906 2.738281 9.199219 4.703125 14.242188 5.804687 v 11.3125 c 0 2.136719 1.734375 3.871094 3.871094 3.871094 h 11.953124 c 2.136719 0 3.871094 -1.734375 3.871094 -3.871094 v -11.3125 c 5.042969 -1.101562 9.863282 -3.066406 14.242188 -5.804687 l 7.929687 7.933593 c 1.511719 1.511719 3.964844 1.511719 5.476563 0 l 8.449218 -8.449218 c 1.511719 -1.511719 1.511719 -3.964844 0 -5.476563 l -7.933593 -7.929687 c 2.738281 -4.378906 4.703125 -9.199219 5.804687 -14.242188 h 11.3125 c 2.136719 0 3.871094 -1.734375 3.871094 -3.871094 v -11.953124 c 0 -2.136719 -1.734375 -3.871094 -3.871094 -3.871094 h -11.210937 c -1.132813 -5.050782 -3.128907 -9.871094 -5.898438 -14.246094 l 7.925781 -7.925781 c 1.511719 -1.511719 1.511719 -3.964844 0 -5.476563 l -8.449218 -8.449218 c -1.511719 -1.511719 -3.964844 -1.511719 -5.476563 0 l -7.925781 7.925781 c -4.375 -2.769531 -9.195312 -4.765625 -14.246094 -5.898438 v -11.210937 c 0 -2.136719 -1.734375 -3.871094 -3.871094 -3.871094 z m 0 0" fill="#5193e4"/>
    <path d="m 92.789062 64 c 0 15.902344 -12.890624 28.789062 -28.789062 28.789062 c -15.902344 0 -28.792969 -12.886718 -28.792969 -28.789062 s 12.890625 -28.789062 28.792969 -28.789062 c 15.898438 0 28.789062 12.886718 28.789062 28.789062 z m 0 0" fill="#ffffff"/>
    <path d="m 64 47.199219 c -1.597656 0 -2.890625 1.292969 -2.890625 2.886719 c 0 1.597656 1.292969 2.890624 2.890625 2.890624 c 1.59375 0 2.890625 -1.292968 2.890625 -2.890624 c 0 -1.59375 -1.296875 -2.886719 -2.890625 -2.886719 z m 0.339844 8.6875 c -0.5625 -0.066407 -1.128906 0.03125 -1.632813 0.285156 l -5.777343 2.886719 c -1.425782 0.714844 -2.007813 2.449218 -1.292969 3.878906 c 0.714843 1.425781 2.449219 2.003906 3.878906 1.289062 l 1.59375 -0.800781 v 14.484375 c 0 2.144532 2.261719 3.542969 4.183594 2.582032 l 5.777343 -2.886719 c 1.425782 -0.714844 2.003907 -2.449219 1.292969 -3.878907 c -0.714843 -1.425781 -2.449219 -2.003906 -3.878906 -1.292968 l -1.59375 0.800781 v -14.480469 c -0.003906 -1.460937 -1.097656 -2.695312 -2.550781 -2.867187 z m 0 0" fill="#5193e4"/>
</svg>
