<svg width="64" height="64" viewBox="0 0 64 64" fill="none" xmlns="http://www.w3.org/2000/svg">
<path d="M60 32C60 47.464 47.464 60 32 60C16.536 60 4 47.464 4 32C4 16.536 16.536 4 32 4C47.464 4 60 16.536 60 32Z" fill="#646464"/>
<path d="M60 31.5C60 46.6878 47.464 59 32 59C16.536 59 4 46.6878 4 31.5C4 16.3122 16.536 4 32 4C47.464 4 60 16.3122 60 31.5Z" fill="url(#paint0_linear_215_4)"/>
<path fill-rule="evenodd" clip-rule="evenodd" d="M39.0734 58.115C51.1127 55.0372 60 44.2879 60 31.5C60 31.3172 59.9982 31.1349 59.9946 30.9529L49.0416 20L42.6776 26.364C44.1131 27.81 45 29.8015 45 32C45 36.4183 41.4183 40 37 40C34.8014 40 32.81 39.1131 31.364 37.6776L25 44.0416L39.0734 58.115Z" fill="url(#paint1_linear_215_4)"/>
<path fill-rule="evenodd" clip-rule="evenodd" d="M36 17C35.4477 17 35 17.4477 35 18V19.3197C35 19.8081 34.6459 20.2206 34.1711 20.3354C32.9478 20.631 31.7976 21.1141 30.7527 21.7525C30.336 22.007 29.7941 21.9656 29.4488 21.6204L28.5355 20.7071C28.145 20.3166 27.5118 20.3166 27.1213 20.7071L25.7071 22.1213C25.3166 22.5118 25.3166 23.145 25.7071 23.5355L26.6204 24.4488C26.9656 24.7941 27.007 25.336 26.7525 25.7527C26.1141 26.7976 25.631 27.9478 25.3354 29.1711C25.2206 29.6459 24.8081 30 24.3197 30H23C22.4477 30 22 30.4477 22 31V33C22 33.5523 22.4477 34 23 34H24.3197C24.8081 34 25.2206 34.3541 25.3354 34.8289C25.631 36.0522 26.1141 37.2024 26.7525 38.2474C27.007 38.664 26.9657 39.2059 26.6204 39.5512L25.6863 40.4853C25.2958 40.8758 25.2958 41.509 25.6863 41.8995L27.1005 43.3137C27.491 43.7043 28.1242 43.7042 28.5147 43.3137L29.4488 42.3796C29.7941 42.0344 30.336 41.993 30.7527 42.2476C31.7976 42.8859 32.9478 43.369 34.1711 43.6646C34.6459 43.7794 35 44.1919 35 44.6803V46C35 46.5523 35.4477 47 36 47H38C38.5523 47 39 46.5523 39 46V44.6803C39 44.1919 39.3541 43.7794 39.8289 43.6646C41.0522 43.369 42.2024 42.8859 43.2473 42.2475C43.664 41.993 44.2059 42.0344 44.5512 42.3796L45.5061 43.3345C45.8966 43.7251 46.5298 43.7251 46.9203 43.3345L48.3345 41.9203C48.7251 41.5298 48.7251 40.8966 48.3345 40.5061L47.3796 39.5512C47.0344 39.2059 46.993 38.664 47.2475 38.2473C47.8859 37.2024 48.369 36.0522 48.6646 34.8289C48.7794 34.3541 49.1919 34 49.6803 34H51C51.5523 34 52 33.5523 52 33V31C52 30.4477 51.5523 30 51 30H49.6803C49.1919 30 48.7794 29.6459 48.6646 29.1711C48.369 27.9478 47.886 26.7976 47.2476 25.7527C46.993 25.336 47.0344 24.7941 47.3796 24.4488L48.3137 23.5147C48.7042 23.1242 48.7042 22.491 48.3137 22.1005L46.8995 20.6863C46.509 20.2958 45.8758 20.2958 45.4853 20.6863L44.5512 21.6204C44.2059 21.9657 43.664 22.007 43.2474 21.7525C42.2024 21.1141 41.0522 20.631 39.8289 20.3354C39.3541 20.2206 39 19.8081 39 19.3197V18C39 17.4477 38.5523 17 38 17H36ZM37 40C41.4183 40 45 36.4183 45 32C45 27.5817 41.4183 24 37 24C32.5817 24 29 27.5817 29 32C29 36.4183 32.5817 40 37 40Z" fill="url(#paint2_linear_215_4)"/>
<path fill-rule="evenodd" clip-rule="evenodd" d="M48.3752 22.039L49.7279 20.6863C50.8995 21.8579 50.8995 23.7574 49.7279 24.9289L48.3137 23.5147C48.7042 23.1242 48.7042 22.491 48.3137 22.1005L46.8995 20.6863C46.509 20.2958 45.8758 20.2958 45.4853 20.6863L44.5512 21.6204C44.2059 21.9657 43.664 22.007 43.2474 21.7525C42.2024 21.1141 41.0522 20.631 39.8289 20.3354C39.3541 20.2206 39 19.8081 39 19.3197V18C39 17.4477 38.5523 17 38 17H36C35.4477 17 35 17.4477 35 18V19.3197C35 19.8081 34.6459 20.2206 34.1711 20.3354C32.9478 20.631 31.7976 21.1141 30.7527 21.7525C30.336 22.007 29.7941 21.9656 29.4488 21.6204L28.5355 20.7071C28.145 20.3166 27.5118 20.3166 27.1213 20.7071L25.7071 22.1213C25.3166 22.5118 25.3166 23.145 25.7071 23.5355L26.6204 24.4488C26.9656 24.7941 27.007 25.336 26.7525 25.7527C26.1141 26.7976 25.631 27.9478 25.3354 29.1711C25.2206 29.6459 24.8081 30 24.3197 30H23C22.4477 30 22 30.4477 22 31V33C22 33.5523 22.4477 34 23 34H24.3197C24.8081 34 25.2206 34.3541 25.3354 34.8289C25.631 36.0522 26.1141 37.2024 26.7525 38.2474C27.007 38.664 26.9657 39.2059 26.6204 39.5512L25.6863 40.4853C25.2958 40.8758 25.2958 41.509 25.6863 41.8995L27.1005 43.3137L25.6863 44.7279L24.2721 43.3137C23.1005 42.1422 23.1005 40.2427 24.2721 39.0711L24.6831 38.6601C24.2289 37.8217 23.8575 36.9313 23.5803 36H23C21.3431 36 20 34.6569 20 33V31C20 29.3431 21.3431 28 23 28H23.5803C23.8575 27.0687 24.2289 26.1783 24.683 25.3399L24.2929 24.9498C23.1213 23.7782 23.1213 21.8787 24.2929 20.7071L25.7071 19.2929C26.8787 18.1213 28.7782 18.1213 29.9497 19.2929L30.3399 19.683C31.1783 19.2289 32.0687 18.8575 33 18.5803V18C33 16.3431 34.3431 15 36 15H38C39.6569 15 41 16.3431 41 18V18.5803C41.9313 18.8575 42.8217 19.2289 43.6601 19.6831L44.0711 19.2721C45.2426 18.1005 47.1421 18.1005 48.3137 19.2721L49.7279 20.6863L48.3752 22.039ZM43.138 20.2052C43.1377 20.2055 43.1373 20.2058 43.137 20.2062L43.7919 20.8611L43.137 20.2062L43.138 20.2052ZM30.7527 42.2476C31.7976 42.8859 32.9478 43.369 34.1711 43.6646C34.6459 43.7794 35 44.1919 35 44.6803V46C35 46.5523 35.4477 47 36 47H38C38.5523 47 39 46.5523 39 46V44.6803C39 44.1919 39.3541 43.7794 39.8289 43.6646C41.0522 43.369 42.2024 42.8859 43.2473 42.2475C43.664 41.993 44.2059 42.0344 44.5512 42.3796L45.5061 43.3345C45.8966 43.7251 46.5298 43.7251 46.9203 43.3345L48.3345 41.9203C48.725 41.5298 48.725 40.8966 48.3345 40.5061L47.3796 39.5512C47.0344 39.2059 46.993 38.664 47.2475 38.2473C47.8859 37.2024 48.369 36.0522 48.6646 34.8289C48.7794 34.3541 49.1919 34 49.6803 34H51C51.5523 34 52 33.5523 52 33V31C52 30.4477 51.5523 30 51 30H49.6803C49.1919 30 48.7794 29.6459 48.6646 29.1711C48.369 27.9478 47.8859 26.7976 47.2476 25.7527C46.993 25.336 47.0344 24.7941 47.3796 24.4488L48.3137 23.5147L49.7279 24.9289L49.317 25.3399C49.7711 26.1783 50.1425 27.0687 50.4197 28H51C52.6569 28 54 29.3431 54 31V33C54 34.6569 52.6569 36 51 36H50.4197C50.1425 36.9313 49.7711 37.8217 49.317 38.6601L49.7487 39.0919C50.9203 40.2635 50.9203 42.163 49.7487 43.3345L48.3345 44.7487C47.163 45.9203 45.2635 45.9203 44.0919 44.7487L43.6601 44.317C42.8217 44.7711 41.9313 45.1425 41 45.4197V46C41 47.6569 39.6569 49 38 49H36C34.3431 49 33 47.6569 33 46V45.4197C32.0687 45.1425 31.1783 44.7711 30.3399 44.317L29.9289 44.7279C28.7574 45.8995 26.8579 45.8995 25.6863 44.7279L27.1005 43.3137C27.491 43.7043 28.1242 43.7042 28.5147 43.3137L29.4488 42.3796C29.7941 42.0344 30.336 41.993 30.7527 42.2476ZM37 38C40.3137 38 43 35.3137 43 32C43 28.6863 40.3137 26 37 26C33.6863 26 31 28.6863 31 32C31 35.3137 33.6863 38 37 38ZM45 32C45 36.4183 41.4183 40 37 40C32.5817 40 29 36.4183 29 32C29 27.5817 32.5817 24 37 24C41.4183 24 45 27.5817 45 32Z" fill="#333333"/>
<path fill-rule="evenodd" clip-rule="evenodd" d="M10.5858 38.5858L24.5858 24.5858L27.4142 27.4142L13.4142 41.4142C12.6332 42.1953 11.3668 42.1953 10.5858 41.4142C9.80474 40.6332 9.80474 39.3668 10.5858 38.5858Z" fill="black"/>
<path d="M36 26C36 31.5228 31.5228 36 26 36C20.4772 36 16 31.5228 16 26C16 20.4772 20.4772 16 26 16C31.5228 16 36 20.4772 36 26Z" fill="url(#paint3_linear_215_4)"/>
<path fill-rule="evenodd" clip-rule="evenodd" d="M26 17C21.0294 17 17 21.0294 17 26C17 30.9706 21.0294 35 26 35C30.9706 35 35 30.9706 35 26C35 21.0294 30.9706 17 26 17ZM15 26C15 19.9249 19.9249 15 26 15C32.0751 15 37 19.9249 37 26C37 32.0751 32.0751 37 26 37C19.9249 37 15 32.0751 15 26Z" fill="black"/>
<path fill-rule="evenodd" clip-rule="evenodd" d="M26 21C26 20.4477 25.5489 19.9913 25.0042 20.0823C22.4883 20.5025 20.5025 22.4883 20.0823 25.0042C19.9913 25.5489 20.4477 26 21 26C21.5523 26 21.9872 25.5453 22.1234 25.0101C22.4833 23.5963 23.5963 22.4834 25.0101 22.1234C25.5453 21.9872 26 21.5523 26 21Z" fill="white"/>
<defs>
<linearGradient id="paint0_linear_215_4" x1="32" y1="4" x2="32" y2="59" gradientUnits="userSpaceOnUse">
<stop stop-color="#CDCDCE"/>
<stop offset="1" stop-color="#8A8E8F"/>
</linearGradient>
<linearGradient id="paint1_linear_215_4" x1="32" y1="32" x2="49" y2="44.5" gradientUnits="userSpaceOnUse">
<stop stop-color="#484848"/>
<stop offset="1" stop-color="#8A8E8F" stop-opacity="0"/>
</linearGradient>
<linearGradient id="paint2_linear_215_4" x1="37" y1="17" x2="37" y2="47" gradientUnits="userSpaceOnUse">
<stop stop-color="#FFC000"/>
<stop offset="0.0001" stop-color="#ECA247"/>
<stop offset="1" stop-color="#F3921A"/>
</linearGradient>
<linearGradient id="paint3_linear_215_4" x1="26" y1="-4" x2="26" y2="36" gradientUnits="userSpaceOnUse">
<stop stop-color="#F3FDFF"/>
<stop offset="1" stop-color="#C6F5FF"/>
</linearGradient>
</defs>
</svg>
