<?xml version="1.0" encoding="UTF-8"?>
<svg height="128px" viewBox="0 0 128 128" width="128px" xmlns="http://www.w3.org/2000/svg">
    <path d="m 18.953125 17.375 l -5.3125 23.742188 c -0.726563 3.242187 -1.09375 6.554687 -1.09375 9.878906 v 59.5 c 0 2.761718 2.238281 5 5 5 h 93 c 2.761719 0 5 -2.238282 5 -5 v -59.5 c 0 -3.320313 -0.390625 -6.632813 -1.160156 -9.863282 l -5.675781 -23.773437 c -0.683594 -2.851563 -3.230469 -4.863281 -6.164063 -4.863281 h -77.5 c -2.921875 0 -5.453125 2.027344 -6.09375 4.878906 z m 0 0" fill="#eabc59"/>
    <path d="m 12.546875 45.996094 h 103 v 64.5 c 0 2.761718 -2.238281 5 -5 5 h -93 c -2.761719 0 -5 -2.238282 -5 -5 z m 0 0" fill="#eabc59"/>
    <path d="m 25.046875 12.496094 h 77.5 c 2.933594 0 5.480469 2.011718 6.164063 4.863281 l 6.835937 28.636719 h -103 l 6.40625 -28.621094 c 0.640625 -2.851562 3.171875 -4.878906 6.09375 -4.878906 z m 0 0" fill="#eac983"/>
    <path d="m 84.492188 99.417969 h 22.199218 c 0.6875 0 1.25 0.558593 1.25 1.25 v 8.460937 c 0 0.6875 -0.5625 1.25 -1.25 1.25 h -22.199218 c -0.691407 0 -1.25 -0.5625 -1.25 -1.25 v -8.460937 c 0 -0.691407 0.558593 -1.25 1.25 -1.25 z m 0 0" fill="#fff9ec"/>
    <path d="m 56.714844 12.496094 h 14.570312 l 2.515625 33.5 h -19.507812 z m 0 0" fill="#c6deea"/>
    <path d="m 54.292969 45.996094 h 19.507812 v 31.085937 c 0 1.378907 -1.117187 2.5 -2.5 2.5 h -14.507812 c -1.378907 0 -2.5 -1.121093 -2.5 -2.5 z m 0 0" fill="#abd5ea"/>
    <g fill="#415159">
        <path d="m 21.300781 101.339844 h 13.054688 c 0.691406 0 1.25 0.558594 1.25 1.25 v 0.859375 c 0 0.691406 -0.558594 1.25 -1.25 1.25 h -13.054688 c -0.691406 0 -1.25 -0.558594 -1.25 -1.25 v -0.859375 c 0 -0.691406 0.558594 -1.25 1.25 -1.25 z m 0 0"/>
        <path d="m 21.300781 107.019531 h 21.011719 c 0.6875 0 1.25 0.558594 1.25 1.25 v 0.859375 c 0 0.6875 -0.5625 1.25 -1.25 1.25 h -21.011719 c -0.691406 0 -1.25 -0.5625 -1.25 -1.25 v -0.859375 c 0 -0.691406 0.558594 -1.25 1.25 -1.25 z m 0 0"/>
    </g>
</svg>
