<?xml version="1.0" encoding="UTF-8"?>
<svg height="128px" viewBox="0 0 128 128" width="128px" xmlns="http://www.w3.org/2000/svg">
    <path d="m 31.492188 26.519531 h 64.992187 c 2.761719 0 5 2.238281 5 5 v 64.988281 c 0 2.761719 -2.238281 5 -5 5 h -64.992187 c -2.761719 0 -5 -2.238281 -5 -5 v -64.988281 c 0 -2.761719 2.238281 -5 5 -5 z m 0 0" fill="#1a3a5f"/>
    <path d="m 41.492188 39.015625 h 44.992187 c 1.382813 0 2.5 1.121094 2.5 2.5 v 44.996094 c 0 1.378906 -1.117187 2.5 -2.5 2.5 h -44.992187 c -1.382813 0 -2.5 -1.121094 -2.5 -2.5 v -44.996094 c 0 -1.378906 1.117187 -2.5 2.5 -2.5 z m 0 0" fill="#4682b9"/>
    <path d="m 61.855469 51.5 c -0.578125 0 -1.046875 0.472656 -1.046875 1.050781 v 2.261719 c -0.359375 0.121094 -0.714844 0.261719 -1.054688 0.425781 l -1.59375 -1.589843 c -0.410156 -0.410157 -1.074218 -0.410157 -1.484375 0 l -3.027343 3.03125 c -0.410157 0.40625 -0.410157 1.070312 0 1.480468 l 1.589843 1.59375 c -0.164062 0.339844 -0.304687 0.695313 -0.425781 1.054688 h -2.261719 c -0.578125 0 -1.050781 0.46875 -1.050781 1.046875 v 4.289062 c 0 0.578125 0.472656 1.046875 1.050781 1.046875 h 2.257813 c 0.125 0.359375 0.265625 0.714844 0.429687 1.054688 l -1.59375 1.597656 c -0.410156 0.410156 -0.410156 1.074219 0 1.480469 l 3.03125 3.03125 c 0.40625 0.410156 1.070313 0.410156 1.480469 0 l 1.59375 -1.59375 c 0.34375 0.164062 0.699219 0.304687 1.058594 0.429687 v 2.257813 c 0 0.578125 0.46875 1.050781 1.046875 1.050781 h 4.289062 c 0.578125 0 1.046875 -0.472656 1.046875 -1.050781 v -2.238281 c 0.363282 -0.125 0.71875 -0.273438 1.066406 -0.441407 l 1.582032 1.582031 c 0.410156 0.410157 1.074218 0.410157 1.480468 0 l 3.03125 -3.03125 c 0.410157 -0.40625 0.410157 -1.070312 0 -1.480468 l -1.582031 -1.582032 c 0.167969 -0.347656 0.316407 -0.703124 0.441407 -1.066406 h 2.238281 c 0.578125 0 1.050781 -0.46875 1.050781 -1.046875 v -4.289062 c 0 -0.578125 -0.472656 -1.046875 -1.050781 -1.046875 h -2.261719 c -0.121094 -0.359375 -0.261719 -0.714844 -0.425781 -1.054688 l 1.589843 -1.589844 c 0.410157 -0.410156 0.410157 -1.074218 0 -1.484374 l -3.03125 -3.03125 c -0.410156 -0.410157 -1.074218 -0.410157 -1.484374 0 l -1.589844 1.589843 c -0.339844 -0.164062 -0.695313 -0.304687 -1.054688 -0.425781 v -2.261719 c 0 -0.578125 -0.46875 -1.050781 -1.046875 -1.050781 z m 2.144531 7.902344 c 2.695312 0 4.882812 2.058594 4.882812 4.597656 s -2.1875 4.597656 -4.882812 4.597656 s -4.882812 -2.058594 -4.882812 -4.597656 s 2.1875 -4.597656 4.882812 -4.597656 z m 0 0" fill="#ffffff"/>
    <g fill="#c1bec6">
        <path d="m 14.988281 35.851562 h 11.503907 v 6.332032 h -11.503907 c -1.378906 0 -2.5 -0.867188 -2.5 -1.933594 v -2.464844 c 0 -1.070312 1.121094 -1.933594 2.5 -1.933594 z m 0 0"/>
        <path d="m 14.988281 52.515625 h 11.503907 v 6.332031 h -11.503907 c -1.378906 0 -2.5 -0.867187 -2.5 -1.933594 v -2.464843 c 0 -1.066407 1.121094 -1.933594 2.5 -1.933594 z m 0 0"/>
        <path d="m 14.988281 69.179688 h 11.503907 v 6.332031 h -11.503907 c -1.378906 0 -2.5 -0.867188 -2.5 -1.933594 v -2.464844 c 0 -1.066406 1.121094 -1.933593 2.5 -1.933593 z m 0 0"/>
        <path d="m 14.988281 85.84375 h 11.503907 v 6.332031 h -11.503907 c -1.378906 0 -2.5 -0.867187 -2.5 -1.933593 v -2.464844 c 0 -1.066406 1.121094 -1.933594 2.5 -1.933594 z m 0 0"/>
        <path d="m 92.152344 15.011719 v 11.507812 h -6.332032 v -11.507812 c 0 -1.378907 0.863282 -2.496094 1.933594 -2.496094 h 2.460938 c 1.070312 0 1.9375 1.117187 1.9375 2.496094 z m 0 0"/>
        <path d="m 75.488281 15.011719 v 11.507812 h -6.335937 v -11.507812 c 0 -1.378907 0.867187 -2.496094 1.9375 -2.496094 h 2.460937 c 1.070313 0 1.9375 1.117187 1.9375 2.496094 z m 0 0"/>
        <path d="m 58.820312 15.011719 v 11.507812 h -6.332031 v -11.507812 c 0 -1.378907 0.867188 -2.496094 1.9375 -2.496094 h 2.460938 c 1.070312 0 1.933593 1.117187 1.933593 2.496094 z m 0 0"/>
        <path d="m 42.15625 15.011719 v 11.507812 h -6.332031 v -11.507812 c 0 -1.378907 0.867187 -2.496094 1.9375 -2.496094 h 2.460937 c 1.070313 0 1.933594 1.117187 1.933594 2.496094 z m 0 0"/>
        <path d="m 112.988281 92.175781 h -11.503906 v -6.332031 h 11.503906 c 1.378907 0 2.5 0.867188 2.5 1.933594 v 2.464844 c 0 1.066406 -1.121093 1.933593 -2.5 1.933593 z m 0 0"/>
        <path d="m 112.988281 75.511719 h -11.503906 v -6.332031 h 11.503906 c 1.378907 0 2.5 0.867187 2.5 1.933593 v 2.464844 c 0 1.066406 -1.121093 1.933594 -2.5 1.933594 z m 0 0"/>
        <path d="m 112.988281 58.847656 h -11.503906 v -6.332031 h 11.503906 c 1.378907 0 2.5 0.867187 2.5 1.933594 v 2.464843 c 0 1.066407 -1.121093 1.933594 -2.5 1.933594 z m 0 0"/>
        <path d="m 112.988281 42.183594 h -11.503906 v -6.332032 h 11.503906 c 1.378907 0 2.5 0.863282 2.5 1.933594 v 2.464844 c 0 1.066406 -1.121093 1.933594 -2.5 1.933594 z m 0 0"/>
        <path d="m 35.824219 113.011719 v -11.503907 h 6.332031 v 11.503907 c 0 1.382812 -0.863281 2.5 -1.933594 2.5 h -2.460937 c -1.070313 0 -1.9375 -1.117188 -1.9375 -2.5 z m 0 0"/>
        <path d="m 52.488281 113.011719 v -11.503907 h 6.332031 v 11.503907 c 0 1.382812 -0.863281 2.5 -1.933593 2.5 h -2.460938 c -1.070312 0 -1.9375 -1.117188 -1.9375 -2.5 z m 0 0"/>
        <path d="m 69.152344 113.011719 v -11.503907 h 6.335937 v 11.503907 c 0 1.382812 -0.867187 2.5 -1.9375 2.5 h -2.460937 c -1.070313 0 -1.9375 -1.117188 -1.9375 -2.5 z m 0 0"/>
        <path d="m 85.820312 113.011719 v -11.503907 h 6.332032 v 11.503907 c 0 1.382812 -0.867188 2.5 -1.9375 2.5 h -2.460938 c -1.070312 0 -1.933594 -1.117188 -1.933594 -2.5 z m 0 0"/>
    </g>
</svg>
