<?xml version="1.0" encoding="UTF-8"?>
<svg height="128px" viewBox="0 0 128 128" width="128px" xmlns="http://www.w3.org/2000/svg">
    <path d="m 111.171875 96.234375 l -42.84375 24.734375 c -2.679687 1.546875 -5.976563 1.546875 -8.65625 0 l -42.84375 -24.734375 c -2.679687 -1.546875 -4.328125 -4.40625 -4.328125 -7.496094 v -49.472656 c 0 -3.09375 1.648438 -5.949219 4.328125 -7.496094 l 42.84375 -24.738281 c 2.679687 -1.546875 5.976563 -1.546875 8.65625 0 l 42.84375 24.738281 c 2.679687 1.546875 4.328125 4.402344 4.328125 7.496094 v 49.472656 c 0 3.089844 -1.648438 5.949219 -4.328125 7.496094 z m 0 0" fill="#c8dddd"/>
    <path d="m 90.339844 53.308594 l -21.117188 12.191406 c -0.597656 0.347656 -1.566406 0.914062 -2.207031 1.167969 c -1.921875 0.746093 -4.054687 0.746093 -5.972656 0 c -0.644531 -0.253907 -1.609375 -0.820313 -2.207031 -1.167969 l -21.117188 -12.191406 c -0.671875 -0.386719 -1.496094 -0.386719 -2.164062 0 l -13.320313 7.691406 c -0.597656 0.347656 -1.609375 0.902344 -1.992187 1.46875 c -0.617188 0.917969 -0.617188 2.144531 0 3.0625 c 0.382812 0.566406 1.394531 1.121094 1.992187 1.464844 l 36.601563 21.136718 c 0.597656 0.34375 1.566406 0.914063 2.207031 1.164063 c 1.921875 0.746094 4.054687 0.746094 5.972656 0 c 0.644531 -0.25 1.609375 -0.820313 2.207031 -1.164063 l 36.605469 -21.136718 c 0.597656 -0.34375 1.605469 -0.898438 1.988281 -1.464844 c 0.617188 -0.917969 0.617188 -2.144531 0 -3.0625 c -0.382812 -0.566406 -1.390625 -1.121094 -1.988281 -1.46875 l -13.324219 -7.691406 c -0.671875 -0.386719 -1.496094 -0.386719 -2.164062 0 z m 0 0" fill="#2f7c74"/>
    <path d="m 59.699219 12.238281 l -38.335938 22.132813 c -0.890625 0.515625 -1.441406 1.46875 -1.441406 2.5 s 0.550781 1.984375 1.441406 2.5 l 38.335938 22.132812 c 2.679687 1.542969 5.980469 1.542969 8.65625 0 l 38.335937 -22.132812 c 0.890625 -0.515625 1.441406 -1.46875 1.441406 -2.5 s -0.550781 -1.984375 -1.441406 -2.5 l -38.335937 -22.132813 c -2.675781 -1.546875 -5.976563 -1.546875 -8.65625 0 z m 0 0" fill="#3a9990"/>
    <path d="m 90.339844 80.4375 l -21.117188 12.191406 c -0.597656 0.347656 -1.566406 0.914063 -2.207031 1.167969 c -1.921875 0.746094 -4.054687 0.746094 -5.972656 0 c -0.644531 -0.253906 -1.609375 -0.820313 -2.207031 -1.167969 l -21.117188 -12.191406 c -0.671875 -0.386719 -1.496094 -0.386719 -2.164062 0 l -13.320313 7.691406 c -0.597656 0.347656 -1.609375 0.902344 -1.992187 1.46875 c -0.617188 0.917969 -0.617188 2.144532 0 3.0625 c 0.382812 0.566406 1.394531 1.121094 1.992187 1.464844 l 36.601563 21.136719 c 0.597656 0.34375 1.566406 0.914062 2.207031 1.164062 c 1.921875 0.746094 4.054687 0.746094 5.972656 0 c 0.644531 -0.25 1.609375 -0.820312 2.207031 -1.164062 l 36.605469 -21.136719 c 0.597656 -0.34375 1.605469 -0.898438 1.988281 -1.464844 c 0.617188 -0.917968 0.617188 -2.144531 0 -3.0625 c -0.382812 -0.566406 -1.390625 -1.121094 -1.988281 -1.46875 l -13.324219 -7.691406 c -0.671875 -0.386719 -1.496094 -0.386719 -2.164062 0 z m 0 0" fill="#286a63"/>
</svg>
