<svg width="32" height="32" viewBox="0 0 32 32" fill="none" xmlns="http://www.w3.org/2000/svg">
<path d="M15.567 4.75C15.7595 4.41667 16.2406 4.41667 16.4331 4.75L29.4234 27.25C29.6159 27.5833 29.3753 28 28.9904 28H3.00966C2.62476 28 2.38419 27.5833 2.57664 27.25L15.567 4.75Z" fill="url(#paint0_linear_71_464)"/>
<path fill-rule="evenodd" clip-rule="evenodd" d="M2.57658 27.25C2.38413 27.5833 2.62469 28 3.00959 28H28.9904C29.3753 28 29.6158 27.5833 29.4234 27.25L16.433 4.75C16.2405 4.41667 15.7594 4.41667 15.567 4.75L2.57658 27.25ZM18.165 3.75L31.1554 26.25C32.1177 27.9167 30.9149 30 28.9904 30H3.00959C1.08509 30 -0.117725 27.9167 0.844526 26.25L13.8349 3.75C14.7972 2.08333 17.2028 2.08333 18.165 3.75Z" fill="#333333"/>
<path d="M4 11C4 10.4477 4.44772 10 5 10H15C15.5523 10 16 10.4477 16 11V17C16 17.5523 15.5523 18 15 18H5C4.44772 18 4 17.5523 4 17V11Z" fill="url(#paint1_linear_71_464)"/>
<path fill-rule="evenodd" clip-rule="evenodd" d="M5 8H15C16.6569 8 18 9.34315 18 11V17C18 18.6569 16.6569 20 15 20H5C3.34314 20 2 18.6569 2 17V11C2 9.34315 3.34315 8 5 8ZM5 10C4.44772 10 4 10.4477 4 11V17C4 17.5523 4.44772 18 5 18H15C15.5523 18 16 17.5523 16 17V11C16 10.4477 15.5523 10 15 10H5Z" fill="#333333"/>
<path d="M16 15C16 14.4477 16.4477 14 17 14H27C27.5523 14 28 14.4477 28 15V21C28 21.5523 27.5523 22 27 22H17C16.4477 22 16 21.5523 16 21V15Z" fill="url(#paint2_linear_71_464)"/>
<path fill-rule="evenodd" clip-rule="evenodd" d="M17 12H27C28.6569 12 30 13.3431 30 15V21C30 22.6569 28.6569 24 27 24H17C15.3431 24 14 22.6569 14 21V15C14 13.3431 15.3431 12 17 12ZM17 14C16.4477 14 16 14.4477 16 15V21C16 21.5523 16.4477 22 17 22H27C27.5523 22 28 21.5523 28 21V15C28 14.4477 27.5523 14 27 14H17Z" fill="#333333"/>
<path fill-rule="evenodd" clip-rule="evenodd" d="M7 21C7 20.4477 7.44772 20 8 20H12C12.5523 20 13 20.4477 13 21C13 21.5523 12.5523 22 12 22H8C7.44772 22 7 21.5523 7 21Z" fill="#333333"/>
<path fill-rule="evenodd" clip-rule="evenodd" d="M19 25C19 24.4477 19.4477 24 20 24H24C24.5523 24 25 24.4477 25 25C25 25.5523 24.5523 26 24 26H20C19.4477 26 19 25.5523 19 25Z" fill="#333333"/>
<defs>
<linearGradient id="paint0_linear_71_464" x1="3.80278e-05" y1="4" x2="32" y2="36" gradientUnits="userSpaceOnUse">
<stop stop-color="#C8C8C8"/>
<stop offset="1" stop-color="#AFAFAF"/>
</linearGradient>
<linearGradient id="paint1_linear_71_464" x1="2" y1="10" x2="10" y2="18" gradientUnits="userSpaceOnUse">
<stop stop-color="white"/>
<stop offset="1" stop-color="#E1E1E1"/>
</linearGradient>
<linearGradient id="paint2_linear_71_464" x1="14" y1="14" x2="22" y2="22" gradientUnits="userSpaceOnUse">
<stop stop-color="white"/>
<stop offset="1" stop-color="#E1E1E1"/>
</linearGradient>
</defs>
</svg>
